<?xml version="1.0" standalone="no"?>
<!DOCTYPE svg PUBLIC "-//W3C//DTD SVG 1.1//EN"
  "http://www.w3.org/Graphics/SVG/1.1/DTD/svg11.dtd">
<svg width="327.0249938964844mm" height="246.0999984741211mm" viewBox="-163.52499389648438 -123.0999984741211 327.0249938964844 246.0999984741211" xmlns="http://www.w3.org/2000/svg" version="1.1">
	<title>svgOutput</title>
	<desc>made with tinkercad</desc>
<path d="M 62.70000076293945 29.5 L 65.26771545410156 32.768001556396484 L 65.53600311279297 33.10945510864258 L 69.30000305175781 37.900001525878906 L 72.10299682617188 41.73400115966797 L 75.07499694824219 46.599998474121094 L 84.9000015258789 65.5 L 84.91868591308594 65.53600311279297 L 93.55302429199219 82.17095947265625 L 95.80000305175781 86.5 L 105 101.5 L 111.30000305175781 112.13800048828125 L 114.9000015258789 119.69999694824219 L 115.5999984741211 122 L 114.22618865966797 122 L 86.4000015258789 122 L 84 119.19999694824219 L 81.70404815673828 116.16934204101562 L 81.5 115.9000015258789 L 77.73160552978516 109.61933898925781 L 77.30000305175781 108.9000015258789 L 66.5 91.0999984741211 L 65.53600311279297 89.510498046875 L 58.5629997253418 78.01300048828125 L 50.49783706665039 65.53600311279297 L 48.599998474121094 62.599998474121094 L 28.536592483520508 32.768001556396484 L 24.312999725341797 26.488000869750977 L 17.5 17 L 14.600000381469727 12.300000190734863 L 13.766011238098145 10.805830001831055 L 13.01804256439209 9.465774536132812 L 12.86299991607666 9.187999725341797 L 11.5 7.5 L 9.425000190734863 4.813000202178955 L 6.488152503967285 4.440892164675075e-17 L 6 -0.800000011920929 L 0 -10.535848617553711 L -1.0539144277572632 -12.24597454071045 L -4.599999904632568 -18 L -9.312999725341797 -25.75 L -12 -31.100000381469727 L -12.765317916870117 -32.768001556396484 L -15.899999618530273 -39.599998474121094 L -18.5 -45.79999923706055 L -20.399999618530273 -51.29999923706055 L -21.937999725341797 -54.987998962402344 L -22.799999237060547 -58 L -25.144046783447266 -65.53600311279297 L -25.475000381469727 -66.5999984741211 L -29.5 -77 L -32.768001556396484 -84.68941497802734 L -34.599998474121094 -89 L -38.37200164794922 -97.18399810791016 L -38.994171142578125 -98.30400085449219 L -42.57500076293945 -104.75 L -46.89099884033203 -111.19100189208984 L -51 -116 L -54.1879997253418 -119.3499984741211 L -55.5 -121.19999694824219 L -55.450767517089844 -121.20899200439453 L -53.80522537231445 -121.50946807861328 L -52.487998962402344 -121.75 L -52.027469635009766 -121.76580047607422 L -45.20000076293945 -122 L -35 -122 L -32.768001556396484 -118.26382446289062 L -30.399999618530273 -114.30000305175781 L -25.795000076293945 -105.99199676513672 L -22.012126922607422 -98.30400085449219 L -21.46299934387207 -97.18800354003906 L -17.447999954223633 -87.98899841308594 L -13.800000190734863 -78.5 L -9.91100025177002 -69.24700164794922 L -8.076615333557129 -65.53600311279297 L -4.438000202178955 -58.17499923706055 L -5.839013151568047e-15 -50.10820770263672 L 1.8799999952316284 -46.691001892089844 L 8.300000190734863 -36.20000076293945 L 10.688962936401367 -32.768001556396484 L 16.76300048828125 -24.04199981689453 L 26.424999237060547 -11.61299991607666 L 36.327152252197266 4.440892164675075e-17 L 37.775001525878906 1.6979999542236328 L 51.29999923706055 16.5 L 62.70000076293945 29.5 M 52.59700012207031 113.11599731445312 L 51.52799987792969 112.83799743652344 L 50.099998474121094 111.8499984741211 L 46.327999114990234 107.88400268554688 L 41.599998474121094 101.5 L 39.24906921386719 98.30400085449219 L 37.28799819946289 95.63800048828125 L 32.768001556396484 90.20204162597656 L 32.599998474121094 90 L 21.799999237060547 77.5 L 10.36820125579834 65.53600311279297 L -1.0227290104484078e-14 54.68511199951172 L -0.4749999940395355 54.1879997253418 L -22.081035614013672 32.768001556396484 L -28 26.899999618530273 L -42 15 L -49.5 9 L -52.70800018310547 6.468999862670898 L -58.9630012512207 2.325000047683716 L -62.91685485839844 4.440892164675075e-17 L -65.53600311279297 -1.5401461124420166 L -72.0999984741211 -5.400000095367432 L -79.98899841308594 -8.786999702453613 L -89.12699890136719 -11.873000144958496 L -99.31600189208984 -14.619999885559082 L -110.36299896240234 -16.988000869750977 L -122.06999969482422 -18.937999725341797 L -131.07200622558594 -20.043651580810547 L -134.24200439453125 -20.433000564575195 L -146.6840057373047 -21.433000564575195 L -159.1999969482422 -21.899999618530273 L -162.5 -22 L -162.5 -22.023130416870117 L -162.5 -22.704177856445312 L -162.5 -23.903728485107422 L -162.5 -44.70000076293945 L -152.3000030517578 -45.400001525878906 L -137.5 -47.099998474121094 L -131.07200622558594 -47.926456451416016 L -123.5 -48.900001525878906 L -106.6520004272461 -49.755001068115234 L -99.76799774169922 -49.57699966430664 L -98.30400085449219 -49.430973052978516 L -95.5071792602539 -49.152000427246094 L -93.86299896240234 -48.987998962402344 L -88.89900207519531 -47.98099899291992 L -84.84200286865234 -46.551998138427734 L -81.91999816894531 -44.84811019897461 L -81.65399932861328 -44.69300079345703 L -79.30000305175781 -42.400001525878906 L -77.65010070800781 -40.80949783325195 L -77.55000305175781 -40.7130012512207 L -76.0999984741211 -40 L -73.8499984741211 -38.82500076293945 L -70.4000015258789 -36 L -66.98799896240234 -33.17499923706055 L -66.29939270019531 -32.768001556396484 L -65.53600311279297 -32.31679916381836 L -65 -32 L -61.025001525878906 -28.738000869750977 L -53 -20.899999618530273 L -43.13800048828125 -11.375 L -35 -4.099999904632568 L -32.768001556396484 -2.417238473892212 L -29.561796188354492 4.440892164675075e-17 L -22.96299934387207 4.974999904632568 L -15.199999809265137 10 L -8.399999618530273 14.199999809265137 L -7.2296881675720215 15.15919303894043 L -0.6060000061988831 20.58799934387207 L 0 21.166015625 L 9.550000190734863 30.274999618530273 L 11.923691749572754 32.768001556396484 L 18.881000518798828 40.07500076293945 L 24.200000762939453 46.79999923706055 L 32 60 L 35.10283660888672 65.53600311279297 L 40.112998962402344 74.4749984741211 L 42.5890007019043 79.80000305175781 L 43.5 82.80000305175781 L 44.900001525878906 87.30000305175781 L 49.190956115722656 98.30400085449219 L 50.2130012512207 100.92500305175781 L 53.5 111.4000015258789 L 53.268001556396484 112.64800262451172 L 52.59700012207031 113.11599731445312 M -61.196998596191406 -102.99400329589844 L -56.40408706665039 -98.30400085449219 L -56.400001525878906 -98.30000305175781 L -45.599998474121094 -84.69999694824219 L -39.4630012512207 -76.93800354003906 L -34.900001525878906 -71.80000305175781 L -32.768001556396484 -69.49717712402344 L -32.61600112915039 -69.33300018310547 L -31.625 -67.51300048828125 L -31.94700050354004 -66.38600158691406 L -32.768001556396484 -66.19428253173828 L -33.599998474121094 -66 L -36.202999114990234 -66.5979995727539 L -39.650001525878906 -68.38800048828125 L -43.922000885009766 -71.35800170898438 L -49 -75.5 L -58.599998474121094 -83.30000305175781 L -64.76399993896484 -87.26300048828125 L -65.53600311279297 -87.70096588134766 L -73.86299896240234 -92.42500305175781 L -83.05500030517578 -97.25 L -89.5 -100.19999694824219 L -97.54100036621094 -102.69100189208984 L -98.30400085449219 -102.87602996826172 L -106.6500015258789 -104.9000015258789 L -115.68399810791016 -106.58399963378906 L -123.5 -107.5 L -131.07200622558594 -107.74630737304688 L -145.78799438476562 -108.2249984741211 L -155.18299865722656 -108.09100341796875 L -160.1999969482422 -107.5999984741211 L -161.48800659179688 -107.3270034790039 L -161.63156127929688 -107.45989990234375 L -162.1750030517578 -107.96299743652344 L -162.17642211914062 -107.99125671386719 L -162.5 -114.4000015258789 L -162.5 -122 L -131.07200622558594 -122 L -98.30400085449219 -122 L -87.5 -122 L -80.80000305175781 -117.9000015258789 L -74.31600189208984 -113.54399871826172 L -67.4749984741211 -108.32499694824219 L -65.53600311279297 -106.6784896850586 L -61.196998596191406 -102.99400329589844 M -128.5 120.0999984741211 L -131.07200622558594 120.42427825927734 L -134.16299438476562 120.81400299072266 L -141.47500610351562 121.01300048828125 L -149.1999969482422 120.70500183105469 L -156.10000610351562 119.9000015258789 L -162.5 118.80000305175781 L -162.5 102.4000015258789 L -162.52499389648438 91.86399841308594 L -162.5 91.54683685302734 L -162.28900146484375 88.87000274658203 L -161.64999389648438 87.03800201416016 L -160.42999267578125 86.0999984741211 L -158.4499969482422 85.79199981689453 L -151.5 86 L -143.96299743652344 85.63800048828125 L -135 84.5999984741211 L -131.07200622558594 84.08529663085938 L -120.5 82.69999694824219 L -114 82.19999694824219 L -101.33799743652344 83.58799743652344 L -98.30400085449219 84.1173095703125 L -83.5 86.69999694824219 L -76.18800354003906 88.75599670410156 L -68.7249984741211 91.75 L -65.53600311279297 93.40963745117188 L -61.67499923706055 95.41899871826172 L -55.599998474121094 99.5 L -49.51900100708008 104.7699966430664 L -42.57500076293945 111.51300048828125 L -36.86899948120117 117.5979995727539 L -34.5 120.9000015258789 L -35.297000885009766 121.36699676513672 L -37.724998474121094 121.71299743652344 L -47.70000076293945 122 L -61 122 L -65.30000305175781 118.5 L -65.53600311279297 118.33997344970703 L -70.21099853515625 115.16999816894531 L -75.26300048828125 113.01300048828125 L -81.00800323486328 111.8479995727539 L -88 111.5 L -96.625 112.125 L -98.30400085449219 112.48212432861328 L -104.5 113.80000305175781 L -128.5 120.0999984741211 M 6 -65 L 5.664999961853027 -65.53600311279297 L 1 -73 L 0 -74.87860870361328 L -7.9629998207092285 -89.83799743652344 L -12.034563064575195 -98.30400085449219 L -17.899999618530273 -110.5 L -20.899999618530273 -119.30000305175781 L -21.600000381469727 -122.0999984741211 L 0 -121.59375 L 4 -121.5 L 7.5 -115.5 L 11.163000106811523 -108.7750015258789 L 14.899999618530273 -101 L 25.350000381469727 -78.41300201416016 L 32.34968948364258 -65.53600311279297 L 34 -62.5 L 41.79999923706055 -48.5 L 51.151798248291016 -32.768001556396484 L 52.5 -30.5 L 65.53600311279297 -9.23073673248291 L 65.80000305175781 -8.800000190734863 L 71.21538543701172 4.440892164675075e-17 L 73.80000305175781 4.199999809265137 L 77.48799896240234 10.27299976348877 L 80.57499694824219 16.11199951171875 L 82.57499694824219 20.69499969482422 L 83 23 L 82.38400268554688 23.6299991607666 L 81.55400085449219 23.910999298095703 L 79.29199981689453 23.464000701904297 L 76.28700256347656 21.72599983215332 L 72.61299896240234 18.76300048828125 L 65.53600311279297 11.473557472229004 L 63.551998138427734 9.430000305175781 L 55.932167053222656 4.440892164675075e-17 L 52.70000076293945 -4 L 31.5 -31 L 30.053455352783203 -32.768001556396484 L 27 -36.5 L 21.399999618530273 -43 L 14.413000106811523 -52.125 L 6 -65 M -100.82499694824219 -88.46299743652344 L -98.30400085449219 -87.21037292480469 L -92.01599884033203 -84.08599853515625 L -88.4000015258789 -81.73780822753906 L -84.80000305175781 -79.4000015258789 L -81 -77 L -77.72000122070312 -74.9000015258789 L -76.95381164550781 -74.30476379394531 L -71.63800048828125 -70.17500305175781 L -66.1013412475586 -65.53600311279297 L -65.68599700927734 -65.18800354003906 L -65.53600311279297 -65.03789520263672 L -62.79999923706055 -62.29999923706055 L -60.08399963378906 -58.909000396728516 L -54.79999923706055 -53.400001525878906 L -49.441001892089844 -48.26599884033203 L -46.5 -46 L -42.555999755859375 -42.04100036621094 L -40.842796325683594 -40.02879333496094 L -35.04999923706055 -33.224998474121094 L -34.68346405029297 -32.768001556396484 L -32.768001556396484 -30.37978744506836 L -27.768999099731445 -24.14699935913086 L -24.5 -19.399999618530273 L -24.95800018310547 -18.868999481201172 L -26.270000457763672 -18.829999923706055 L -31.08799934387207 -20.08799934387207 L -32.768001556396484 -20.751697540283203 L -38.21099853515625 -22.902000427246094 L -46.900001525878906 -27 L -57.96760559082031 -32.768001556396484 L -64.33799743652344 -36.0880012512207 L -65.53600311279297 -36.890342712402344 L -67.9229965209961 -38.48899841308594 L -70 -40.599998474121094 L -72.81700134277344 -43.08100128173828 L -77.08799743652344 -46.20000076293945 L -81.26399993896484 -48.86899948120117 L -81.8985595703125 -49.152000427246094 L -83.80000305175781 -50 L -89.80000305175781 -53.29999923706055 L -97.06700134277344 -57.316001892089844 L -98.30400085449219 -57.86805725097656 L -105.93800354003906 -61.275001525878906 L -114.78900146484375 -64.52200317382812 L -118.68247985839844 -65.53600311279297 L -122 -66.4000015258789 L -131.07200622558594 -67.17962646484375 L -131.60000610351562 -67.2249984741211 L -145.6999969482422 -67.30000305175781 L -160.1089630126953 -67.04269409179688 L -162.5 -67 L -162.5 -94.9000015258789 L -161.5257568359375 -95.10391235351562 L -158.1999969482422 -95.80000305175781 L -150.86700439453125 -96.36299896240234 L -149.640380859375 -96.35889434814453 L -139.51300048828125 -96.32499694824219 L -131.07200622558594 -95.94168090820312 L -127.9520034790039 -95.80000305175781 L -120 -94.9000015258789 L -110.4219970703125 -92.18299865722656 L -100.82499694824219 -88.46299743652344 M 118.30000305175781 -25.200000762939453 L 114.7255630493164 -32.768001556396484 L 113.92500305175781 -34.4630012512207 L 113.04100036621094 -37.19499969482422 L 113 -38.70000076293945 L 113.77999877929688 -39.409000396728516 L 115.63800048828125 -38.150001525878906 L 120.42498016357422 -32.768001556396484 L 126 -26.5 L 131.07200622558594 -19.576614379882812 L 132.76400756835938 -17.267000198364258 L 140.43800354003906 -4.538000106811523 L 142.83009338378906 4.440892164675075e-17 L 148.54200744628906 10.836000442504883 L 156.60000610351562 28 L 162.5 41.400001525878906 L 162.5 61.900001525878906 L 162.45216369628906 65.53600311279297 L 162.31300354003906 76.11299896240234 L 161.89999389648438 81.69999694824219 L 158 71.80000305175781 L 155.60133361816406 65.53600311279297 L 148.5795135498047 47.198795318603516 L 145.71299743652344 39.7130012512207 L 133.5 9.5 L 131.07200622558594 3.430000066757202 L 129.6999969482422 4.440892164675075e-17 L 128.5 -3 L 125.22339630126953 -10.54139232635498 L 123.7750015258789 -13.875 L 118.30000305175781 -25.200000762939453 M 29.200000762939453 122 L 20.382999420166016 121.87000274658203 L 14.98799991607666 121.11299896240234 L 11.072999954223633 119.1729965209961 L 6.699999809265137 115.5 L 1.7000000476837158 111.5999984741211 L -1.7309319870983074e-14 110.36927032470703 L -7.813000202178955 104.71299743652344 L -18 96.69999694824219 L -27.674999237060547 89.55000305175781 L -32.768001556396484 86.05431365966797 L -42.900001525878906 79.0999984741211 L -49.11899948120117 75.31700134277344 L -56.20000076293945 71.56300354003906 L -62.98099899291992 68.427001953125 L -65.53600311279297 67.50135803222656 L -68.30000305175781 66.5 L -71.39282989501953 65.53600311279297 L -76 64.0999984741211 L -87.9000015258789 60.650001525878906 L -107 56.599998474121094 L -131.07200622558594 52.04169845581055 L -135.91299438476562 51.125 L -151.6999969482422 48.79999923706055 L -162.5 47.599998474121094 L -162.5 47.209449768066406 L -162.5 46.0904541015625 L -162.5 13.953801155090332 L -162.5 13.800000190734863 L -155.60000610351562 14.5 L -143.8000030517578 15.600000381469727 L -131.07200622558594 16.72047233581543 L -122.81900024414062 17.44700050354004 L -108.0250015258789 19.274999618530273 L -96.04399871826172 21.590999603271484 L -83.5 24.899999618530273 L -67 29.600000381469727 L -65.53600311279297 30.111249923706055 L -57.928218841552734 32.768001556396484 L -57.51300048828125 32.91299819946289 L -49 37.5 L -40.12300109863281 43.409000396728516 L -30.937999725341797 50.04999923706055 L -22.632999420166016 56.54100036621094 L -16.399999618530273 62 L -12.662582397460938 65.53600311279297 L -1.1788893598569262e-14 77.51616668701172 L 0.30000001192092896 77.80000305175781 L 9.48799991607666 86.81300354003906 L 15.600000381469727 93.5 L 21.83799934387207 100.46299743652344 L 31.299999237060547 110.19999694824219 L 32.768001556396484 111.68054962158203 L 43 122 L 32.768001556396484 122 L 29.200000762939453 122 M 79.4000015258789 -122 L 120.20182037353516 -122 L 120.4000015258789 -122 L 124.0999984741211 -115.30000305175781 L 131.07200622558594 -103.3168716430664 L 133.6999969482422 -98.80000305175781 L 144.3249969482422 -79.53800201416016 L 153 -62 L 159.21299743652344 -47.6879997253418 L 161.89999389648438 -42.29999923706055 L 161.955078125 -41.371456146240234 L 162.31300354003906 -35.3380012512207 L 162.5 -19.600000381469727 L 162.5 -8.800000190734863 L 162.5 4.440892164675075e-17 L 162.5 2.5 L 160.5 4.440892164675075e-17 L 158.5 -3.200000047683716 L 155.42300415039062 -9.274999618530273 L 148.36300659179688 -21.575000762939453 L 135.3000030517578 -42.79999923706055 L 131.07200622558594 -48.084999084472656 L 125.69999694824219 -54.79999923706055 L 116.9719009399414 -65.53600311279297 L 115.86299896240234 -66.9000015258789 L 107 -79 L 101.30000305175781 -87.19999694824219 L 90.58799743652344 -103.4000015258789 L 81 -119 L 79.4000015258789 -122 M 139.843994140625 121.84200286865234 L 138.8800048828125 121.23500061035156 L 137.77499389648438 119.91300201416016 L 134.3939971923828 114.0270004272461 L 131.07200622558594 107.57661437988281 L 128.1999969482422 102 L 120.50199890136719 85.8499984741211 L 113.71299743652344 69.0250015258789 L 112.54483032226562 65.53600311279297 L 107.99199676513672 51.9379997253418 L 103.5 35 L 102.93205261230469 32.768001556396484 L 101.43000030517578 26.864999771118164 L 98.88400268554688 18.6299991607666 L 98.30400085449219 17.030513763427734 L 95.84600067138672 10.251999855041504 L 92.30000305175781 1.687999963760376 L 91.47929382324219 4.440892164675075e-17 L 83.61599731445312 -16.17300033569336 L 74.1450424194336 -32.768001556396484 L 72.69999694824219 -35.29999923706055 L 65.53600311279297 -47.63800048828125 L 65.5 -47.70000076293945 L 61.29999923706055 -53.5 L 52.259517669677734 -65.53600311279297 L 51.07500076293945 -67.11299896240234 L 45.20000076293945 -76.30000305175781 L 43.099998474121094 -80 L 32.82500076293945 -98.92500305175781 L 32.768001556396484 -99.03913879394531 L 22.399999618530273 -119.80000305175781 L 21.5 -122 L 32.768001556396484 -122 L 43.0220832824707 -122 L 44.20000076293945 -122 L 50 -110.80000305175781 L 61.70000076293945 -88.28800201416016 L 65.53600311279297 -81.3643569946289 L 67.4000015258789 -78 L 70 -73.80000305175781 L 75.57054901123047 -65.53600311279297 L 79.0999984741211 -60.29999923706055 L 96.58799743652344 -34.25 L 97.4968490600586 -32.768001556396484 L 107.55000305175781 -16.375 L 111.38099670410156 -9.085000038146973 L 114.53800201416016 -2.138000011444092 L 115.32353973388672 4.440892164675075e-17 L 120.0999984741211 13 L 126.20738220214844 32.768001556396484 L 128.0749969482422 38.8129997253418 L 131.07200622558594 50.793819427490234 L 133.5 60.5 L 134.61911010742188 65.53600311279297 L 137.5 78.5 L 140.89999389648438 95.5 L 144 112.5 L 145.5 121.19999694824219 L 144.51300048828125 121.78800201416016 L 142.10000610351562 122 L 139.843994140625 121.84200286865234 z" fill="none" stroke="rgb(0,0,255)" stroke-width="0.01mm" />
</svg>